<svg version="1.1" xmlns="http://www.w3.org/2000/svg" viewBox="0 0 400 139" fill="#FAFAFA">
<g>
	<path class="st0" d="M0,136c1.6-1.2,3.1-2.5,4.8-3.7c1.4-1,1.7-3,2.8-4.2c1.4-1.4,1-3,1-4.5c0-5.7,0-11.5,0-17.2
		c0-0.6,0.1-1.2-0.6-1.7c0,0.8,0,1.5,0,2.2c-0.1,0-0.2,0-0.2,0c0-0.4,0-0.8,0-1.2c0.2-3.6-0.1-7.3-0.4-10.9c-0.3-3.7-0.4-7.4-0.1-11
		c0.4-6.5,0.1-13,0.2-19.5c0-2.2-0.2-4.4-0.6-6.6c-0.4-2.2-2-3.7-4-4.8c-0.4-0.2-1-0.2-0.9-0.8c0.1-0.7,0.7-0.6,1.2-0.6
		c6.8-0.4,13.6-0.3,20.4-0.2c2,0,3.9,0.3,6.1,0.2c-0.9,1.8-2.1,3-3.2,4.4c-1.6,2-2.5,4.1-2.5,6.7c0.1,4.2,0.2,8.5,0,12.7
		c-0.5,8.5,0.1,17-0.3,25.5c-0.2,4.3,0.4,8.7-0.3,12.9c-0.6,3.4,1.2,6,1.8,9c0.1,0.7,0.6,0.9,1.2,0.9c5.2,0.7,10.4,1.4,15.6,1.1
		c3.8-0.2,7.7-0.6,11.2-2.3c3.2-1.5,6.4-3.2,9.4-5.2c0.9-0.6,1.9-1.3,3-1.7c-2.1,6.4-4.6,12.5-7,18.7c-0.8,2.1-1.9,2.5-4,2.6
		c-7.9,0.2-15.7,0.4-23.6,0.2c-10.3-0.4-20.7-0.1-31-0.2C0,136.5,0,136.2,0,136z"/>
	<path class="st0" d="M392.4,69.6c-1.5-0.7-1.6-2.9-3.5-2.8c-4.6-3.1-8.5-4.6-14.7-5.3c-4.3-0.5-8.4-0.1-12.3,1.4
		c-5.5,2.2-6.9,7.8-4.9,12.4c0.5,1.1,1.8,1.7,2.6,2.5c4.5,4.3,9.9,7.1,15.6,9.1c3.5,1.3,6.9,2.8,10.3,4.3c4,1.9,6.6,5.2,9.6,8.3
		c1.5,1.5,2.1,3.6,3.2,5.3c1.4,2.1,1.7,4.3,2.1,6.6c0.4,2.1-0.3,4.2-0.9,6.2c-1,4-3.2,7.2-6,10.3c-4.7,5.2-10.9,7.6-17.4,9.4
		c-5.1,1.4-10.4,1.9-15.6,1.6c-5.1-0.3-10.2-1-15.2-2.6c-1.6-0.5-3.1-1.4-4.9-1.3c-0.4,0-0.6-0.1-0.6-0.5c-0.9-3.9-1.7-7.8-2-11.8
		c-0.1-2-0.6-4.1-0.5-6.2c0.6,0,0.9,0.2,1.2,0.6c0.9,1.3,2.3,2.3,3.5,2.9c2.4,1.3,4.6,3,7.5,3.7c2.5,0.6,5,1.6,7.6,2.2
		c5.6,1.3,11.1,1.7,16.6-0.3c4.5-1.7,7.9-4.4,9.5-9.1c0.1-0.2,0.1-0.4,0.1-0.5c0.1-0.4,0.4,0.9,0.4-0.1c-0.1-4.6-1.8-8.2-5.8-11
		c-4.2-2.9-8.8-4.9-13.3-7.2c-1.4-0.7-2.9-1.4-4.5-1.8c-1.9-0.5-3.4-1.9-5.2-2.5c-1.2-0.4-2.3-1.8-3-1.7c-1.4,0.2-2.2-0.5-2.9-1.1
		c-2.8-2.3-5.7-4.5-7.8-7.5c-2.7-3.8-3.1-7.9-2.8-12.2c0.2-3.5,0.8-6.9,3-9.6c3-3.7,6.8-6.5,11.2-8.3c5.1-2.1,10.5-2.9,16-3.4
		c5.8-0.5,11.6,0.3,17.3,1.2c2,0.3,3.9,0.6,5.8,1.1c0.7,0.2,1.4,0.3,1.1,1.3c-0.6,2.5-0.2,5-0.3,7.5c0,1.2,0,2.4,0,3.6
		c0,0.6,0.1,1.1-0.4,1.7c-0.2,0.3-0.6,1.2,0.3,1.7C392.7,67.9,392.4,69,392.4,69.6z"/>
	<path class="st0" d="M212.3,124c2.1-1.2,3.7-2.6,5.2-4c1.4-1.3,1.9-3,2.1-4.8c0.4-3.2,0-6.5,0.4-9.7c0.2-1.6,0.5-3.1,0.5-4.7
		c0-2.9-1.2-5.6-1-8.6c0-0.3-0.1-0.5-0.1-0.8c-0.1-3.7-0.3-7.4-0.2-11.1c0.1-2.7,0.3-5.3,0.7-8c0.2-1.3-0.8-2.4-1.6-3.4
		c-1.2-1.4-2.6-2.7-3.9-4c0.5-0.5,1.3-0.7,2.1-0.6c3.8,0,7.6,0,11.5,0c1,0,1.7,0.2,2.3,1.3c1.2,1.9,2.9,3.6,4.3,5.4
		c3.7,4.5,7.6,8.8,11.3,13.3c2.9,3.6,5.3,7.6,8.4,11.1c2.6,2.9,4.5,6.3,7,9.3c1,1.2,1.9,2.3,3.1,3.7c0.6-2.6,0.1-5,0.3-7.3
		c-0.8,0-0.5,0.7-0.8,1c-0.6-3.7-0.3-7.5-0.3-11.2c-0.1-3.7,0-7.4-0.2-11.1c-0.1-2.5,0.1-5.1,0.5-7.6c0.1-0.9-0.3-1.7-0.8-2.4
		c-1.2-1.7-2.7-3.2-4.5-4.2c-0.7-0.4-0.6-0.6,0-1c0.4-0.2,0.9-0.3,1.3-0.3c4.8,0,9.7,0,14.5,0c1.1,0,2.1,0.3,3.4,0.5
		c-1.5,1.6-2.4,3.3-4,4.5c-1.2,0.8-1.6,2.1-1.6,3.6c0,9.2,0,18.4,0,27.6c0,1.3-0.1,2.5-0.7,3.6c-0.4,0.7,0.8,1.1,0.3,1.4
		c-1,0.7,0.7,2.1-0.8,2.7c0,0-0.1,0.3,0,0.4c1.6,1.5,0.7,3.6,1,5.4c0.5,2.5,0.1,5.2,0.3,7.8c0.1,1.7-0.1,3.6-0.2,5.4
		c-3-0.1-5.2-1.7-7.5-3.3c-3.1-2.1-5-5.3-7.4-7.9c-2.1-2.3-4.2-4.7-6-7.2c-2.3-3.4-5.2-6.3-7.7-9.5c-2.1-2.7-4.4-5.2-6.6-7.8
		c-1.8-2.1-3.6-4.3-5.3-6.5c-0.7-0.8-1.6-1.8-2.4-1.6c-1,0.3-1.2,1.7-1,2.8c0.7,5.4-0.1,10.8-0.1,16.3c0,3.7-0.2,7.4-0.1,11.1
		c0.1,2-0.3,4.4,1.4,6.1c1.2,1.2,2.6,2.2,3.9,3.3c0.3,0.3,1,0.4,0.7,1c-0.2,0.5-0.7,0.7-1.3,0.7c-6,0-11.9,0-17.9,0
		C214.2,124.5,213.5,124.2,212.3,124z"/>
	<path class="st0" d="M168.1,93c-0.4,0.5-0.5,0.9-0.5,1.4c0.2,6.2-0.4,12.4-0.3,18.6c0,3.1,0.2,6.2,0.3,9.3c0,0.8-0.2,1.2-1.1,1.3
		c-4.8,0.6-9.5,1.7-14.3,2.1c-2.7,0.2-5.4,0.7-8.2,0.5c-4.8-0.3-9.6-1-14.3-2.3c-4.5-1.2-8.5-3.3-11.9-6.2c-3.2-2.9-6-6.3-7.6-10.4
		c-1.2-3-1.9-6-2-9.2c0-0.1,0-0.3,0-0.4c-2.1-3.1-1-6.4-0.5-9.5c0.5-3.3,1.5-6.6,3.6-9.3c2.7-3.7,5.6-7.3,9.8-9.4
		c4.5-2.4,9.2-4.3,14.3-5.3c4.6-0.8,9.2-1.3,13.8-1c3.6,0.2,7.2,0.6,10.8,1.3c0.6,0.1,1.3,0.3,1.1,1.1c-0.6,2.9-0.1,5.7-0.3,8.6
		c0,1.1,0,2.1,0,3.3c-0.9-0.2-1.5-0.6-2.2-1.1c-3.4-2.6-7.3-3.9-11.5-4.4c-5.3-0.7-10.4,0.1-15.2,2.2c-5.4,2.4-9,6.6-11,12.1
		c-1.3,3.6-1.8,7.3-1.2,11.1c0.1,0.7,0,1.4-0.1,2.1c0,0.3-0.2,0.5-0.1,0.8c1,3,2.6,5.5,4.4,8.1c3.4,5,8.5,6.8,13.9,8.1
		c2.2,0.6,4.4,1,6.7,1c3.5,0.1,7.1-0.4,10.5-1.5c0.3-0.1,0.6-0.4,0.8-0.6c0.4,0.2,0.1,0.8,0.6,1c0-2.7,0-5.4,0-8.2
		c-0.3,0,0,0.6-0.3,0.6c-0.5-2.3-0.8-4.7-0.7-7.1c0-0.3-0.1-0.6,0-0.8c0.9-2.5-0.6-4-2.4-5.3c-1.1-0.8-2.3-1.6-3.8-2.1
		c0.9-0.7,1.8-1,2.8-1c4.6,0,9.1,0,13.7,0C166.6,92.6,167.2,92.9,168.1,93z"/>
	<path class="st0" d="M291.2,55.5c-5.8,1.4-11.6,0.2-17.3,0.4c0.1-0.7,1.1-1.4,0.4-2c-0.7-0.7-1.6-0.1-2.3,0.2
		c-2.2,0.7-4.1,2-6.4,2.5c-8.1,1.8-15.2,0.1-21.5-5.3c-2.3-2-2.9-4.6-3.8-7.2c-0.5-1.4-0.2-2.9-0.4-4.1c-0.5-2.5,0.6-4.8-0.3-7.3
		c-0.5-1.4-0.3-3.1,0.1-4.7c0.2-0.7,0.5-1.6,0.1-2.5c-0.1-0.3,0-0.7-0.1-1.1c-0.3-4.7-0.6-9.3-0.8-14c0-0.8-0.3-1.6,0.2-2.3
		c0.8-1.3,0.1-2.2-0.8-3c-1.9-1.8-4.3-2.5-6.7-3.4c-0.3-0.1-0.6-0.2-0.9-0.3c0.7-0.7,1.5-0.8,2.4-0.8c5.7,0,11.4,0,17.1,0
		c1.6,0,3.2,0.4,5,0.2c-1.1,1.7-2.7,2.3-3.9,3.5c-1,1-1.4,2-1.4,3.3c0,3.2,0.1,6.4-0.3,9.6c0,0.3,0,0.6-0.1,0.8
		c-0.4,0.7-0.6,1.3-0.3,2.2c0.4,0.8,0.8,1.8,0.1,2.7c-0.3,0.5,0.4,0.9,0.3,1.5c-0.1,1.7,0,3.4,0,5c0,0.4,0.2,1-0.6,1.1
		c0,0-0.1,0-0.1,0.1c-0.6,0.9,0.4,1.1,0.6,1.7c0.2,0.5-1.6,0.6-0.2,1.3c0.5,0.2,0.3,0.7,0.3,1c-0.2,2.7,0.1,5.4,0.6,8.1
		c0.4,2.4,2.3,4.8,4.6,5.4c2.6,0.7,5.1,1.8,8,1.5c4.4-0.5,8.2-2.1,10.8-5.9c1.1-1.6,0.9-3.6,1-5.3c0.2-3.3,0.6-6.6,0.5-9.9
		c0,0.7,0.1,1.4,0.1,2.1c0,0,0.1,0,0.1,0c0-4.6,0-9.1,0-13.7c-0.3,1.8,0.1,3.7-0.7,5.5c0-2.8,0-5.7,0-8.5c0-2.4,0-4.8,0-7.1
		c0-0.7-0.2-1.2-0.7-1.7c-1.2-1.2-2.4-2.5-4-3.2c-0.2-0.1-0.7-0.1-0.5-0.5c0.1-0.3,0.4-0.6,0.6-0.7c0.3-0.1,0.7-0.1,1.1-0.1
		c4.4,0,8.9,0,13.3,0c1.1,0,2.2,0.5,3.3,0.3c0.2,0,0.6,0.1,0.5,0.3c-0.3,0.6,0.1,1.4-0.6,1.8c-1.9,1.3-2.4,3.3-2.4,5.4
		c0,13.4,0,26.8-0.1,40.1c0,2.4,1,3.9,3.1,4.9C289.2,53.9,290.2,54.5,291.2,55.5z"/>
	<path class="st0" d="M224.1,46.2c0,0.9,0,1.8,0,2.6c0.7-2.5,0.6-4.9,0.5-7.4c-0.1-2.5,0.1-4.9-0.2-7.4c-0.3-2.5-1.5-4-3.4-5.2
		c-0.5-0.3-1-0.6-1.7-1.1c2.8,0,5.3,0,7.8,0c2.4,0,4.8,0,7.2,0c0-0.2-15.8-0.1-15.9-0.4c-0.1-0.2,0.2-0.4,0.4-0.4
		c1-0.2,2.1-0.7,3.1-0.5c3.7,0.5,7.3,0.2,11,0.2c1.4,0,2,0.4,1.8,1.8c-0.6,5.2-0.2,10.5-0.3,15.8c0,0.2,0.1,0.4,0,0.5
		c-1.2,1.4-0.2,2.8-0.1,4.1c0.1,1.9,0.1,3.7,0.1,5.6c0,0.4-0.3,0.6-0.7,0.7c-4.4,0.7-8.7,1.5-13.1,1.9c-3.7,0.4-7.5,0.5-11.2,0.1
		c-3.9-0.4-7.6-1.1-11.3-2.4c-3.3-1.2-6.5-2.8-9.2-5.1c-2.4-2-4.3-4.7-5.9-7.5c-1.5-2.6-2.2-5.4-2.8-8.3c-0.3-1.4,0.1-2.8-0.8-4.1
		c0,0,0-0.1,0-0.1c0.9-2.4-0.6-4.8,0-7.3c0.6-2.4,1.3-4.9,2.6-7.1c0.8-1.4,1.8-2.8,2.9-4c3-3.6,6.8-6.3,11.1-8.2
		c3.6-1.6,7.4-2.4,11.2-3.2c0.7-0.2,1.5-0.2,2.2-0.2c2.8,0,5.5-0.6,8.3-0.3c2.4,0.3,4.8,0.3,7.2,0.7c0.2,0,0.4,0,0.6,0
		c3.2,0.5,3.2,0.5,3.1,3.8c-0.1,2.8,0.3,5.6-0.4,8.6c-1.4-1.2-2.9-2-4.5-2.8c-4.6-2.3-9.4-2.6-14.4-2.1c-3.4,0.4-6.6,1.3-9.5,3
		c-4.3,2.5-7.1,6.2-8.5,11c-2.1,6.9-0.9,13.3,2.9,19.3c2.1,3.2,5.2,5.2,8.8,6.6c4.8,1.9,9.8,2.2,14.9,1.9c1.7-0.1,3.4-0.6,5.2-0.8
		c0.5-0.1,0.6-0.3,0.7-0.7c0.1-0.5,0.2-1.1,0.3-1.6C224,46.1,224.1,46.1,224.1,46.2z"/>
	<path class="st0" d="M110.1,109.2c-2.2,4.1-2.6,8.8-4.3,13c-0.9,2.2-0.8,2.2-3.1,2.2c-11.7,0-23.5,0-35.2,0c-0.7,0-1.5,0-2.2-0.3
		c-0.3-0.1-0.7,0-0.8-0.4c-0.1-0.4,0.4-0.6,0.6-0.7c1-0.6,1.7-1.6,2.6-2.3c1.3-1.1,2-2.4,1.7-4.1c-0.2-1.2,0.7-2.3,0.6-3.5
		c-0.4-3.4-0.1-6.9-0.3-10.3c-0.5-8.5,0-17-0.3-25.5c-0.1-2.7-0.1-5.4-0.3-8.1c-0.1-1.4-1.1-2.4-2.3-3.3c-0.4-0.3-1.1-0.4-0.9-1
		c0.2-0.6,0.9-0.6,1.4-0.6c10.9,0,21.8,0,32.7,0c0.7,0,1,0.1,1,0.9c0,3.9,0,7.8,0,11.9c-1.8-1.2-3.4-2.4-5.3-3.1
		c-1.6-0.5-3.1-0.8-4.7-0.8c-2.7,0.1-5.5,0-8.3,0c-0.8,0-1.2,0.1-1.3,1c-0.1,0.6-0.2,1.3-0.2,1.9c0,3.2,0.1,6.3,0,9.5
		c0,1.3,0.4,1.5,1.6,1.5c4.1-0.1,8.2,0,12.3,0c1.2,0,1.4,0.4,1.2,1.5c-0.4,2.4-0.1,4.8-0.2,7.2c0,1.6,0,1.6-1.5,1
		c-1.2-0.6-2.4-0.9-3.7-0.9c-2.8,0.1-5.6,0.1-8.4,0c-1,0-1.2,0.3-1.3,1.2c-0.2,3.1,0,6.3-0.6,9.4c-0.2,1.1-0.6,2.5-0.3,3.2
		c0.7,1.7-0.2,3.5,0.8,5.1c0.2,0.3,0.5,1.1,1.1,0.3c0.3-0.3,0.8-0.1,1.2-0.2c3.2-0.1,6.4,0.3,9.6,0.5c5.3,0.4,10-1.2,14.2-4.4
		C107.9,110.4,108.9,109.6,110.1,109.2z"/>
	<path class="st0" d="M206.5,76.7c-2.8-3.1-6.5-3.4-10.1-3.6c-2.8-0.2-5.8-0.3-8.6,0.2c-0.7,0.1-0.8,0.3-0.9,0.9
		c-0.5,3.4-0.2,6.8-0.2,10.2c0,0.8,0.2,1.6,0.3,2.3c0.1,0.8,0.8,0.5,1.2,0.5c4.1,0,8.3,0,12.4,0c1,0,1.2,0.1,1.2,1.2
		c-0.1,2.9-0.6,5.7-0.2,8.7c-4.6-1.9-9.3-0.9-13.9-0.9c-0.5,0-0.7,0.2-0.8,0.7c-0.7,4.2-0.7,8.4-0.3,12.6c0.2,1.7,0.1,3.4-0.1,5
		c-0.1,1,0.2,1.1,0.8,0.7c1.5-1,2.9-0.2,4.4-0.1c2.9,0.2,5.8,0.7,8.7,0.2c1.9-0.3,3.7-0.5,5.6-0.9c1.8-0.4,3.4-1.2,4.9-2.2
		c1.3-0.9,2.7-1.8,4.2-2.5c-0.4,3.1-1.7,5.8-2.5,8.7c-0.5,1.6-1.1,3.2-1.6,4.8c-0.3,1-0.8,1.2-1.8,1.2c-9.6,0-19.1,0-28.7,0
		c-3.5,0-7.1,0-10.7,0c0.6-1.4,1.8-2.1,2.8-3c2.1-1.7,3.2-3.7,3-6.5c-0.1-1.3,0-2.7,0.3-4c0.3-1.5,0.6-3.1,0.1-4.4
		c-1.3-4.1-0.3-8.4-1-12.5c-0.1-0.4,0-0.7,0-1.1c0-6.2,0-12.3,0-18.5c0-1,0-2.1,0.5-3.1c0.4-0.8-0.3-1.7-0.8-2.2
		c-1.3-1.3-2.1-3.1-4-3.7c-0.7-0.2-0.3-0.6,0-0.8c0.2-0.1,0.5-0.1,0.8-0.1c6-0.4,12-0.3,18-0.3c5.3,0,10.5,0,15.8,0
		c1,0,1.4,0.2,1.3,1.3C206.4,69.3,206.5,73,206.5,76.7z"/>
	<path class="st0" d="M83,55.6c1-1.8,2.9-2.4,3.9-4c0.6-0.9,0.9-1.8,0.9-2.7c0-1.6,0.4-3.1,0.4-4.7c0.5,0.3,0,1,0.5,1.3
		c0-2.6,0-5.2,0-7.8c-0.1,0-0.1,0-0.2,0c0,1.1,0,2.2,0,3.3c-0.3-5.4-0.1-10.8-0.7-16.2c0.5-0.2,0.6,0.5,0.7,0.3
		c0.6-0.6,0-1.4,0.3-2.1c-0.6-0.1-0.2,0.6-0.5,0.6c-0.5-5.5-1-11.1-0.7-16.6c0.1-2.4-1.4-4.5-3.6-5.4c1.7-1.7,3.8-1.3,5.8-1.1
		c3.2,0.3,6.3,0.2,9.4,0c2.8-0.2,5.7-0.2,8.5,0c1.6,0.1,3.2,0,4.9,0.2c1.1,0.1,2.2,0.1,3.3,0.2c1.2,0.1,1.1,0.6,1.1,1.4
		c0,3.1,0,6.2,0,9.6c-2.2-1.3-4.4-2.2-6.7-2.6c-3.7-0.7-7.3-0.9-11-0.5c-0.5,0.1-0.5,0.4-0.6,0.7c-0.7,3.2-0.5,6.4-0.6,9.6
		c0,0.6,0.3,1.3-0.6,1.6c-0.2,0.1-0.6,1,0.4,1c0.3,0,0.2,0.1,0.3,0.2c0.5,1.1,0.6,1.2,1.7,0.3c0.2-0.2,0.5-0.3,0.8-0.3
		c2,0.1,3.9-0.5,5.9-0.1c1.5,0.3,3.1,0.3,4.7-0.1c0.4-0.1,1.1-0.1,0.8,0.5c-0.4,0.9,0.2,1.9-0.6,2.6c-0.4,0.3-0.2,0.7,0.2,0.9
		c0.7,0.5,0.5,1.2,0.2,1.7c-0.4,1-0.7,1.9,0,2.8c0.1,0.2,0.1,0.5-0.1,0.8c-1.4-0.3-1.8-2.1-3.4-2.1c-0.8,0-1.9-0.9-2.3,0.6
		c0,0-0.2,0.1-0.3,0.1c-1.8,0-3.7,0.1-5.4-0.1c-1.5-0.2-2.2,0.1-2.2,1.6c0,2.1-0.2,4.1,0,6.2c0,0.8-1.1-0.1-0.7,0.7
		c0.2,0.4,0.9,0.7,0.7,1.1c-0.8,1.4,0.4,3-0.7,4.3c-0.2,0.2,0,0.4,0.1,0.6c0.1,1.1,0.9,2.1,0.7,3.3C98.1,48,98.8,48,99,47.6
		c0.7-0.9,1.6-0.7,2.4-0.6c3.4,0.6,6.8,0.9,10.2,0.8c3.4-0.1,6.3-1.5,9.1-3.4c1.3-0.8,2.5-1.6,3.8-2.5c0.3,0.4,0.1,0.7,0,1.1
		c-1.3,4-2.7,7.9-4,11.9c-0.2,0.8-0.6,0.9-1.3,0.9c-11.1,0.4-22.2,0.2-33.2,0.3C85.1,56.2,84.1,55.9,83,55.6z"/>
	<path class="st0" d="M326.3,0.6c0,0.8-0.3,1.5-0.5,2.2c-0.2,0.8-0.4,1.4,0.2,2.2c0.6,0.8,0.3,1.8,0.2,2.7c-0.1,1-0.2,2-0.2,3
		c0,0.2,0.1,0.5-0.2,0.5c-0.3,0-0.7-0.1-0.7-0.4c0.1-0.9-0.2-0.9-0.9-0.7c-0.2,0.1-0.5-0.2-0.7-0.5c-0.6-0.8-1.5-1.3-2.5-1.3
		c-0.8,0-1.2-0.6-1.9-0.6c-2.7-0.3-5.5-0.2-8.2-0.2c-0.4,0-0.9-0.2-1,0.4c-0.1,0.3-0.2,0.2-0.2,0c-0.4-0.8-0.9-0.3-1.4-0.2
		c-0.6,0.2-0.9,0.8-1.1,1.3c-0.4,1.1-0.2,5.1,0.4,6.3c0.2,0.4,0.1,0.8,0.1,1.2c0,1.6,0,3.3,0,4.9c0,0.5,0.1,1.1,0.7,0.8
		c3.4-1.3,6.9-0.5,10.4-0.5c1,0,2-0.1,3-0.1c0,1-0.1,2-0.1,3c0,2.1,0,4.1,0,6.2c0,0.1,0,0.2-0.1,0.4c-2.8-1.4-5.8-1.5-8.8-1.5
		c-1.3,0-2.6,0.4-3.9,0.3c-0.5-0.1-0.6,0.2-0.8,0.7c-0.5,2.3-0.3,4.5-0.2,6.8c0,2.9-0.3,5.9,0.2,8.8c0.1,0.4,0.1,0.8,0.7,0.8
		c4.3,0.2,8.5,0.7,12.8,0.6c3.4-0.1,6.3-1.1,8.9-3.2c0.9-0.7,2-1.2,3.2-1.7c-0.6,2.2-1.1,4.2-1.6,6.2c-0.6,2.2-1.3,4.3-1.9,6.5
		c-0.2,0.6-0.4,0.9-1.1,0.9c-11.6,0-23.2,0-34.8,0c-0.3,0-0.6,0-0.9-0.2c-0.9-0.4-1-1-0.2-1.3c1.4-0.6,2-1.9,3-2.8
		c0.6-0.6,1-1.4,0.9-2.4c-0.1-2,0-4.1,0-6.2c-0.2-4.5,0.1-8.9,0.4-13.4c0.3-5.4,0.1-10.9,0.2-16.3c0-1.7-0.3-3.4-0.4-5.1
		c0-0.1-0.1-0.2-0.1-0.3c1.2-3.5-1.7-4.6-3.6-6.4c-0.3-0.3-1-0.2-0.9-0.7c0.1-0.5,0.6-0.7,1.2-0.7C304.6,0.6,315.4,0.6,326.3,0.6z"
		/>
	<path class="st0" d="M43.1,55.7c0.7-0.5,1.3-1.2,2.1-1.6c2.7-1.5,3.2-4,3.2-6.7c0-13.7,0-27.3,0-41c0-1.2-0.8-2-1.4-2.8
		C46.5,3,46.1,2.1,45,2c-0.7-0.1-0.7-0.7-0.1-1.1c0.3-0.2,0.7-0.4,1.2-0.4c5.8,0,11.6,0,17.5,0c0,0.7-0.4,1.1-0.9,1.4
		c-0.5,0.3-0.8,0.8-1.2,1.3C59.9,5,59.6,7,59.5,9.3c-0.4,12.2-0.1,24.3-0.2,36.5c0,1.2,0.2,1.6,1.5,1.6c3.3-0.1,6.6,1,9.9,0.8
		c3.9-0.2,7.3-1.6,10.6-3.5c1.6-0.9,3.1-1.8,4.9-2.9c-0.7,2-1.3,3.7-1.9,5.4c-0.9,2.6-2.3,5-2.9,7.7c-0.2,0.8-0.6,1.2-1.5,1.2
		c-11.9,0-23.9,0-35.8,0c-0.2,0-0.4,0-0.5-0.1C43.4,56,43.3,55.8,43.1,55.7z"/>
	<path class="st0" d="M358.6,24.9c-1.2,1.2-1.7,2.6-3.5,2.2c-1.4-0.2-1.1,1-1.2,1.8c-0.1,0.9,0.2,1.4,1.2,1.3c0.2,0,0.4-0.1,0.6,0
		c0.4,0.2,1-0.5,1.2,0c0.2,0.6,0.2,1.3,0,1.9c-0.2,0.7-1,0.4-1.4,0.2c-0.9-0.3-1.1,0-1.3,0.8c-0.7,2.1-0.2,6.5,1,8.2
		c-1.9,0.3-3.8,0.1-5.8,0c1.9-0.6,1.9-2.1,1.9-3.7c-0.1-1.3,0-2.6,0-3.9c0-0.6,0.2-1.3-0.9-1.3c-0.7,0-0.2-0.6,0-0.7
		c1-0.7,0.9-1.7,1-2.7c0.1-2.2,1.8-3.7,4.4-4C356.5,24.8,357.4,24.9,358.6,24.9z"/>
	<path class="st0" d="M8.4,102.6c-0.3-0.6-0.5-1.2,0.2-1.9C8.7,101.5,8.7,102,8.4,102.6z"/>
	<path class="st0" d="M365.3,127.9c-0.9,0.4-1.5,0.3-2.1,0C363.8,127.5,364.4,127.5,365.3,127.9z"/>
	<path class="st0" d="M279.7,124.3c2.1-2.7,5.4-4.3,5.7-8.5c0.3,0.7,0.3,0.9,0.5,1.4c-0.1-5.4,0.2-10.6,0-15.8
		c0-0.5,0.2-1.1-0.7-1.2c-0.4,0-0.3-0.6-0.3-1c0-7.6-0.1-15.3,0.1-22.9c0-1.8-0.1-3.6,0.4-5.4c0.2-0.7-0.3-1.4-0.7-1.9
		c-1.3-1.5-2.6-2.9-4.6-3.4c-0.3-0.1-0.7-0.2-0.7-0.5c0-0.5,0.5-0.6,0.8-0.7c0.4-0.1,0.8-0.1,1.2-0.1c9.5,0,19-0.2,28.5,0.1
		c5,0.1,9.8,1.4,14.2,4c1.6,1,3.4,1.6,4.8,2.9c2.4,2.2,4.5,4.6,6,7.5c1.8,3.3,2.9,6.7,3.5,10.4c0.2,1.1,0.3,2.3-0.3,3.4
		c-0.4,0.7-0.6,1.6-0.4,2.4c0.2,1.6,0.3,3.3,0.3,4.8c-0.1,1.8-0.6,3.7-1.4,5.4c-2.3,4.7-5.1,9-9,12.5c-3.7,3.3-8,5.6-13.1,6.2
		c-4.4,0.5-8.8,1-13.1,0.7c-4.4-0.3-8.9,0.2-13.2-0.3C285.3,124.1,282.6,124.9,279.7,124.3z M296.6,97.6c0,0.6,0,1.1-0.5,1.6
		c-0.7,0.9-0.7,2.5-0.2,3.1c0.6,0.8,0.2,1,0.1,1.6c-0.2,1.1-0.5,2.3-0.1,3.2c0.3,0.8,0.3,1.5,0.4,2.2c0.5,2,0.1,3.9,0.2,5.9
		c0,0.8,0.3,1,1,0.9c2.7-0.6,5.5,0,8.3-0.5c2.9-0.5,5.9-0.9,8.7-2c4.3-1.6,7.3-4.9,9.5-8.7c1.2-2,2-4.3,2.2-6.6
		c0.1-1.9,1.4-3.6,0.4-5.8c-1.1-2.2-1.3-4.8-1.9-7.3c-0.7-3.2-2.8-5.8-5.7-7.7c-6.6-4.2-13.7-4.5-21.1-3.2c-0.7,0.1-1.1,0.7-1.1,1.4
		c0.1,1.9-0.4,3.8-0.3,5.7c0.1,2.4,0,4.8,0,7.3C296.6,91.6,296.6,94.6,296.6,97.6z"/>
	<path class="st0" d="M214.2,50.3c-0.7,0.4-1.4,0.4-2.4,0.1C212.8,49.9,213.5,50.1,214.2,50.3z"/>
	<path class="st0" d="M214.7,50.4c0.4-0.4,1-0.3,1.6-0.2C215.7,50.9,215.2,50.6,214.7,50.4z"/>
	<path class="st0" d="M122.3,55.6c0.8-1.2,2-1.6,2.9-2.4c3.4-3,5.6-6.8,7.2-11c3.4-8.9,7.3-17.6,10.9-26.5c1.2-3.1,2.3-6.2,3.4-9.3
		c0.4-1.2,0.4-2.4-0.8-3.3c-0.6-0.4-1-1.1-0.7-1.8c0.3-0.7,1-0.6,1.6-0.8c1.7-0.4,3.4-0.2,5.1,0c2.2,0.3,4.3-0.5,6.5,0
		c1.1,0.2,2.1-0.2,2.1,1.7c0,1.4,0.9,2.8,1.4,4.1c2.5,6.2,4.9,12.5,7.4,18.7c1,2.3,1.5,4.8,2.5,7.1c2.2,4.8,4.3,9.7,7,14.2
		c0.3,0.5,0.5,1.1,0.7,1.7c1,2.8,3.7,4,5.6,6c0.3,0.3,1,0.4,1.5,0.5c0.6,0.1,1.1,0.3,1.5,0.8c-1.4,0.6-20.8,0.9-24.3,0.4
		c0.5-1.3,1.9-1.3,2.8-2c0.7-0.5,1.5-0.9,2.1-1.5c0,0,0.1-0.1,0.1-0.1c0.9-0.6,0.9-0.6,0.5-1.9c-1.5-4.7-3.7-9.2-5.5-13.8
		c-0.2-0.6-0.7-1.3-1.6-0.7c-0.2,0.1-0.7,0.1-0.9,0c-0.7-0.2-1.4-0.4-2,0.2c-0.2,0.2-0.6,0.1-0.9,0.1c-1.7,0-3.4,0-5.2,0
		c-0.5,0-1.1,0.2-1.3-0.6c-0.1-0.3-0.6-0.3-0.7,0c-0.3,1-1,0.6-1.6,0.6c-1.4,0-2.9,0.1-4.3,0c-1.2-0.1-1.8,0.4-2.2,1.4
		c-0.3,0.7,0,1.8-1.3,1.9c-0.2,0-0.1,0.3,0,0.5c0.1,1.4-0.4,2.9-1.1,3.9c-0.9,1.2-1.1,2.6-2,3.7c-0.2,0.2-1,1,0.1,1.5
		c0.2,0.1,0,0.7-0.2,1c-0.7,1.8-0.4,2.7,1.3,3.4c1,0.4,2,0.8,2.9,1.2c0.2,0.1,0.7,0.2,0.7,0.6c-0.1,0.4-0.4,0.6-0.8,0.7
		c-0.3,0.1-0.7,0-1,0c-5.2,0-10.3,0-15.5,0C124.9,55.9,123.7,55.5,122.3,55.6z M159.5,28.7c0.2,0.2,0.6,0.2,0.8,0
		c0.5-0.5,0.1-0.9-0.1-1.3c-0.8-1.9-1.6-3.9-2.4-5.9c-1-2.5-2.1-5.1-3.1-7.6c-0.3-0.8-1.2-0.6-1.7-1c-0.2-0.2-0.3,0.2-0.4,0.4
		c-1.3,3.1-2.5,6.1-3.8,9.2c-0.9,2.1-1.9,4.2-2.6,6.5c0.6-0.1,1.1,0.2,1.4-0.3c0.7-0.9,1.7-0.8,2.7-0.9c3.1-0.1,6.3,0.4,9.5-0.4
		C159.7,27.9,158.9,28.2,159.5,28.7z"/>
	<path class="st0" d="M101.3,22.7c0.9-0.4,1.9-0.3,3.2-0.2C103.3,23.2,102.3,22.9,101.3,22.7z"/>
	<path class="st0" d="M108.9,22.4c-1,0.8-1.9,0.4-2.9,0.4C106.9,22.1,107.8,22.4,108.9,22.4z"/>
	<path class="st0" d="M297.8,27.3c0-5,0-10.1,0-15.2C298.8,17.2,297.8,22.3,297.8,27.3z"/>
	<path class="st0" d="M325.7,1.3c-1.1,0.6-2.3,0.3-3.5,0.3C323.3,0.7,324.6,1.3,325.7,1.3z"/>
	<path class="st0" d="M343.7,30.2c3.9,0,6,1.9,6,5.3c0,3.7-2.4,6-6.3,6c-3.4,0-6.3-2.7-6.3-5.9C337.1,32.4,339.8,30.2,343.7,30.2z
		 M347.2,36c0-2.2-1.6-4.1-3.4-4.1c-2.7,0-3.9,1-3.9,3.5c0,2.7,1.1,4,3.6,4.1C345.6,39.4,347.2,37.9,347.2,36z"/>
</g>
</svg>
